<mxfile host="app.diagrams.net" agent="Mozilla/5.0 (Windows NT 10.0; Win64; x64) AppleWebKit/537.36 (KHTML, like Gecko) Chrome/127.0.0.0 Safari/537.36" version="24.7.7">
  <diagram name="第 1 页" id="rBroqQjTNLhBKOfvFXeg">
    <mxGraphModel dx="1306" dy="1226" grid="1" gridSize="10" guides="1" tooltips="1" connect="1" arrows="1" fold="1" page="1" pageScale="1" pageWidth="1169" pageHeight="827" math="0" shadow="0">
      <root>
        <mxCell id="0" />
        <mxCell id="1" parent="0" />
        <mxCell id="FycG8oyHSj_Sa7Rq2zaZ-1" value="" style="swimlane;startSize=0;" vertex="1" parent="1">
          <mxGeometry x="60" y="740" width="250" height="200" as="geometry" />
        </mxCell>
        <mxCell id="FycG8oyHSj_Sa7Rq2zaZ-2" value="" style="shape=image;verticalLabelPosition=bottom;labelBackgroundColor=default;verticalAlign=top;aspect=fixed;imageAspect=0;image=https://cdn-icons-png.flaticon.com/512/10169/10169718.png;" vertex="1" parent="FycG8oyHSj_Sa7Rq2zaZ-1">
          <mxGeometry x="10" y="20" width="80" height="80" as="geometry" />
        </mxCell>
        <mxCell id="FycG8oyHSj_Sa7Rq2zaZ-3" value="Developer Local Workspace" style="text;html=1;align=center;verticalAlign=middle;resizable=0;points=[];autosize=1;strokeColor=none;fillColor=none;fontStyle=1" vertex="1" parent="FycG8oyHSj_Sa7Rq2zaZ-1">
          <mxGeometry x="10" y="160" width="170" height="30" as="geometry" />
        </mxCell>
        <mxCell id="FycG8oyHSj_Sa7Rq2zaZ-4" value="Feature" style="rounded=1;whiteSpace=wrap;html=1;align=left;" vertex="1" parent="FycG8oyHSj_Sa7Rq2zaZ-1">
          <mxGeometry x="110" y="30" width="70" height="30" as="geometry" />
        </mxCell>
        <mxCell id="FycG8oyHSj_Sa7Rq2zaZ-5" value="" style="ellipse;whiteSpace=wrap;html=1;aspect=fixed;" vertex="1" parent="FycG8oyHSj_Sa7Rq2zaZ-1">
          <mxGeometry x="160" y="28.75" width="32.5" height="32.5" as="geometry" />
        </mxCell>
        <mxCell id="FycG8oyHSj_Sa7Rq2zaZ-6" value="" style="shape=image;verticalLabelPosition=bottom;labelBackgroundColor=default;verticalAlign=top;aspect=fixed;imageAspect=0;image=https://www.svgrepo.com/show/347750/git-branch.svg;" vertex="1" parent="FycG8oyHSj_Sa7Rq2zaZ-1">
          <mxGeometry x="166.25" y="35" width="20" height="20" as="geometry" />
        </mxCell>
        <mxCell id="FycG8oyHSj_Sa7Rq2zaZ-9" value="" style="shape=image;verticalLabelPosition=bottom;labelBackgroundColor=default;verticalAlign=top;aspect=fixed;imageAspect=0;image=https://apptraitsolutions.com/wp-content/uploads/2021/02/Git-Logo-1788C.png;" vertex="1" parent="FycG8oyHSj_Sa7Rq2zaZ-1">
          <mxGeometry x="92.5" y="118.24000000000001" width="100" height="41.76" as="geometry" />
        </mxCell>
        <mxCell id="FycG8oyHSj_Sa7Rq2zaZ-10" value="" style="swimlane;startSize=0;" vertex="1" parent="1">
          <mxGeometry x="60" y="110" width="250" height="430" as="geometry" />
        </mxCell>
        <mxCell id="FycG8oyHSj_Sa7Rq2zaZ-14" value="" style="shape=image;verticalLabelPosition=bottom;labelBackgroundColor=default;verticalAlign=top;aspect=fixed;imageAspect=0;image=https://about.gitlab.com/images/press/logo/png/old-logo-no-bkgrd.png;" vertex="1" parent="FycG8oyHSj_Sa7Rq2zaZ-10">
          <mxGeometry x="52.5" width="135.86" height="60" as="geometry" />
        </mxCell>
        <mxCell id="FycG8oyHSj_Sa7Rq2zaZ-15" value="Master" style="rounded=1;whiteSpace=wrap;html=1;align=left;" vertex="1" parent="FycG8oyHSj_Sa7Rq2zaZ-10">
          <mxGeometry x="27.5" y="141.25" width="70" height="30" as="geometry" />
        </mxCell>
        <mxCell id="FycG8oyHSj_Sa7Rq2zaZ-16" value="" style="ellipse;whiteSpace=wrap;html=1;aspect=fixed;" vertex="1" parent="FycG8oyHSj_Sa7Rq2zaZ-10">
          <mxGeometry x="77.5" y="140" width="32.5" height="32.5" as="geometry" />
        </mxCell>
        <mxCell id="FycG8oyHSj_Sa7Rq2zaZ-17" value="" style="shape=image;verticalLabelPosition=bottom;labelBackgroundColor=default;verticalAlign=top;aspect=fixed;imageAspect=0;image=https://www.svgrepo.com/show/347750/git-branch.svg;" vertex="1" parent="FycG8oyHSj_Sa7Rq2zaZ-10">
          <mxGeometry x="83.75" y="146.25" width="20" height="20" as="geometry" />
        </mxCell>
        <mxCell id="FycG8oyHSj_Sa7Rq2zaZ-18" value="Feature" style="rounded=1;whiteSpace=wrap;html=1;align=left;" vertex="1" parent="FycG8oyHSj_Sa7Rq2zaZ-10">
          <mxGeometry x="27.5" y="331.25" width="70" height="30" as="geometry" />
        </mxCell>
        <mxCell id="FycG8oyHSj_Sa7Rq2zaZ-19" value="" style="ellipse;whiteSpace=wrap;html=1;aspect=fixed;" vertex="1" parent="FycG8oyHSj_Sa7Rq2zaZ-10">
          <mxGeometry x="77.5" y="330" width="32.5" height="32.5" as="geometry" />
        </mxCell>
        <mxCell id="FycG8oyHSj_Sa7Rq2zaZ-20" value="" style="shape=image;verticalLabelPosition=bottom;labelBackgroundColor=default;verticalAlign=top;aspect=fixed;imageAspect=0;image=https://www.svgrepo.com/show/347750/git-branch.svg;" vertex="1" parent="FycG8oyHSj_Sa7Rq2zaZ-10">
          <mxGeometry x="83.75" y="336.25" width="20" height="20" as="geometry" />
        </mxCell>
        <mxCell id="FycG8oyHSj_Sa7Rq2zaZ-44" value="" style="endArrow=classic;html=1;rounded=0;exitX=0.5;exitY=0;exitDx=0;exitDy=0;entryX=0;entryY=0.5;entryDx=0;entryDy=0;" edge="1" parent="FycG8oyHSj_Sa7Rq2zaZ-10" source="FycG8oyHSj_Sa7Rq2zaZ-19" target="FycG8oyHSj_Sa7Rq2zaZ-46">
          <mxGeometry relative="1" as="geometry">
            <mxPoint x="280" y="330" as="sourcePoint" />
            <mxPoint x="120" y="250" as="targetPoint" />
            <Array as="points">
              <mxPoint x="94" y="245" />
            </Array>
          </mxGeometry>
        </mxCell>
        <mxCell id="FycG8oyHSj_Sa7Rq2zaZ-45" value="Create MR" style="edgeLabel;resizable=0;html=1;;align=center;verticalAlign=middle;" connectable="0" vertex="1" parent="FycG8oyHSj_Sa7Rq2zaZ-44">
          <mxGeometry relative="1" as="geometry">
            <mxPoint y="27" as="offset" />
          </mxGeometry>
        </mxCell>
        <mxCell id="FycG8oyHSj_Sa7Rq2zaZ-46" value="" style="ellipse;whiteSpace=wrap;html=1;aspect=fixed;" vertex="1" parent="FycG8oyHSj_Sa7Rq2zaZ-10">
          <mxGeometry x="150" y="220" width="50" height="50" as="geometry" />
        </mxCell>
        <mxCell id="FycG8oyHSj_Sa7Rq2zaZ-43" value="" style="shape=image;verticalLabelPosition=bottom;labelBackgroundColor=default;verticalAlign=top;aspect=fixed;imageAspect=0;image=https://www.svgrepo.com/show/326656/git-pull-request-outline.svg;" vertex="1" parent="FycG8oyHSj_Sa7Rq2zaZ-10">
          <mxGeometry x="155" y="226.25" width="40" height="40" as="geometry" />
        </mxCell>
        <mxCell id="FycG8oyHSj_Sa7Rq2zaZ-11" value="" style="endArrow=none;html=1;rounded=0;exitX=0.004;exitY=0.142;exitDx=0;exitDy=0;exitPerimeter=0;entryX=0.993;entryY=0.145;entryDx=0;entryDy=0;entryPerimeter=0;" edge="1" parent="1" source="FycG8oyHSj_Sa7Rq2zaZ-10" target="FycG8oyHSj_Sa7Rq2zaZ-10">
          <mxGeometry width="50" height="50" relative="1" as="geometry">
            <mxPoint x="270" y="270" as="sourcePoint" />
            <mxPoint x="320" y="220" as="targetPoint" />
          </mxGeometry>
        </mxCell>
        <mxCell id="FycG8oyHSj_Sa7Rq2zaZ-22" value="" style="curved=1;endArrow=classic;html=1;rounded=0;exitX=0.5;exitY=1;exitDx=0;exitDy=0;entryX=0.25;entryY=0;entryDx=0;entryDy=0;strokeColor=#990099;" edge="1" parent="1" source="FycG8oyHSj_Sa7Rq2zaZ-19" target="FycG8oyHSj_Sa7Rq2zaZ-4">
          <mxGeometry width="50" height="50" relative="1" as="geometry">
            <mxPoint x="270" y="520" as="sourcePoint" />
            <mxPoint x="320" y="470" as="targetPoint" />
            <Array as="points">
              <mxPoint x="130" y="490" />
              <mxPoint x="130" y="580" />
              <mxPoint x="140" y="680" />
            </Array>
          </mxGeometry>
        </mxCell>
        <mxCell id="FycG8oyHSj_Sa7Rq2zaZ-23" value="Pull" style="text;html=1;align=center;verticalAlign=middle;resizable=0;points=[];autosize=1;strokeColor=none;fillColor=none;" vertex="1" parent="1">
          <mxGeometry x="110" y="630" width="40" height="30" as="geometry" />
        </mxCell>
        <mxCell id="FycG8oyHSj_Sa7Rq2zaZ-24" value="" style="curved=1;endArrow=classic;html=1;rounded=0;exitX=0.25;exitY=0;exitDx=0;exitDy=0;entryX=0.5;entryY=1;entryDx=0;entryDy=0;strokeColor=#990099;" edge="1" parent="1" source="FycG8oyHSj_Sa7Rq2zaZ-4" target="FycG8oyHSj_Sa7Rq2zaZ-19">
          <mxGeometry width="50" height="50" relative="1" as="geometry">
            <mxPoint x="270" y="520" as="sourcePoint" />
            <mxPoint x="320" y="470" as="targetPoint" />
            <Array as="points">
              <mxPoint x="200" y="640" />
              <mxPoint x="200" y="510" />
            </Array>
          </mxGeometry>
        </mxCell>
        <mxCell id="FycG8oyHSj_Sa7Rq2zaZ-25" value="Push" style="text;html=1;align=center;verticalAlign=middle;resizable=0;points=[];autosize=1;strokeColor=none;fillColor=none;" vertex="1" parent="1">
          <mxGeometry x="180" y="630" width="50" height="30" as="geometry" />
        </mxCell>
        <mxCell id="FycG8oyHSj_Sa7Rq2zaZ-26" value="" style="swimlane;startSize=0;" vertex="1" parent="1">
          <mxGeometry x="600" y="110" width="240" height="830" as="geometry" />
        </mxCell>
        <mxCell id="FycG8oyHSj_Sa7Rq2zaZ-28" value="" style="shape=image;verticalLabelPosition=bottom;labelBackgroundColor=default;verticalAlign=top;aspect=fixed;imageAspect=0;image=https://upload.wikimedia.org/wikipedia/commons/thumb/e/e3/Jenkins_logo_with_title.svg/2560px-Jenkins_logo_with_title.svg.png;" vertex="1" parent="FycG8oyHSj_Sa7Rq2zaZ-26">
          <mxGeometry x="40" width="160" height="51.47" as="geometry" />
        </mxCell>
        <mxCell id="FycG8oyHSj_Sa7Rq2zaZ-30" value="Commit Stage" style="rounded=0;whiteSpace=wrap;html=1;fillColor=#f5f5f5;gradientColor=#b3b3b3;strokeColor=#666666;" vertex="1" parent="FycG8oyHSj_Sa7Rq2zaZ-26">
          <mxGeometry y="50" width="240" height="30" as="geometry" />
        </mxCell>
        <mxCell id="FycG8oyHSj_Sa7Rq2zaZ-31" value="&lt;b&gt;&lt;font color=&quot;#6600cc&quot;&gt;Branch: all branch&lt;/font&gt;&lt;/b&gt;&lt;div style=&quot;line-height: 250%;&quot;&gt;&lt;b&gt;Pull SCM&lt;/b&gt;&lt;/div&gt;&lt;div style=&quot;line-height: 250%;&quot;&gt;&lt;b&gt;Compile&lt;/b&gt;&lt;/div&gt;&lt;div style=&quot;line-height: 250%;&quot;&gt;&lt;b&gt;Unit Test&lt;/b&gt;&lt;/div&gt;&lt;div style=&quot;line-height: 250%;&quot;&gt;&lt;b&gt;Code Quality Analyze&lt;/b&gt;&lt;/div&gt;" style="text;html=1;align=left;verticalAlign=middle;resizable=0;points=[];autosize=1;strokeColor=none;fillColor=none;spacingTop=0;" vertex="1" parent="FycG8oyHSj_Sa7Rq2zaZ-26">
          <mxGeometry y="80" width="150" height="150" as="geometry" />
        </mxCell>
        <mxCell id="FycG8oyHSj_Sa7Rq2zaZ-33" value="Acceptance Stage" style="rounded=0;whiteSpace=wrap;html=1;fillColor=#f5f5f5;gradientColor=#b3b3b3;strokeColor=#666666;" vertex="1" parent="FycG8oyHSj_Sa7Rq2zaZ-26">
          <mxGeometry y="230" width="240" height="30" as="geometry" />
        </mxCell>
        <mxCell id="FycG8oyHSj_Sa7Rq2zaZ-32" value="PASS" style="rhombus;whiteSpace=wrap;html=1;" vertex="1" parent="1">
          <mxGeometry x="410" y="290" width="60" height="30" as="geometry" />
        </mxCell>
        <mxCell id="FycG8oyHSj_Sa7Rq2zaZ-35" value="" style="endArrow=classic;html=1;rounded=0;entryX=1;entryY=0.5;entryDx=0;entryDy=0;exitX=0.533;exitY=0.867;exitDx=0;exitDy=0;exitPerimeter=0;strokeColor=#B3B3B3;" edge="1" parent="1" source="FycG8oyHSj_Sa7Rq2zaZ-31" target="FycG8oyHSj_Sa7Rq2zaZ-32">
          <mxGeometry relative="1" as="geometry">
            <mxPoint x="420" y="350" as="sourcePoint" />
            <mxPoint x="520" y="350" as="targetPoint" />
            <Array as="points">
              <mxPoint x="680" y="330" />
              <mxPoint x="600" y="330" />
              <mxPoint x="490" y="330" />
              <mxPoint x="490" y="305" />
            </Array>
          </mxGeometry>
        </mxCell>
        <mxCell id="FycG8oyHSj_Sa7Rq2zaZ-36" value="Feedback" style="edgeLabel;resizable=0;html=1;;align=center;verticalAlign=middle;" connectable="0" vertex="1" parent="FycG8oyHSj_Sa7Rq2zaZ-35">
          <mxGeometry relative="1" as="geometry">
            <mxPoint x="-18" as="offset" />
          </mxGeometry>
        </mxCell>
        <mxCell id="FycG8oyHSj_Sa7Rq2zaZ-37" value="" style="endArrow=classic;html=1;rounded=0;exitX=0;exitY=0.5;exitDx=0;exitDy=0;entryX=1;entryY=0;entryDx=0;entryDy=0;strokeColor=#00FF00;" edge="1" parent="1" source="FycG8oyHSj_Sa7Rq2zaZ-32" target="FycG8oyHSj_Sa7Rq2zaZ-19">
          <mxGeometry relative="1" as="geometry">
            <mxPoint x="330" y="470" as="sourcePoint" />
            <mxPoint x="430" y="470" as="targetPoint" />
            <Array as="points">
              <mxPoint x="380" y="305" />
              <mxPoint x="380" y="445" />
            </Array>
          </mxGeometry>
        </mxCell>
        <mxCell id="FycG8oyHSj_Sa7Rq2zaZ-38" value="Yes" style="edgeLabel;resizable=0;html=1;;align=center;verticalAlign=middle;" connectable="0" vertex="1" parent="FycG8oyHSj_Sa7Rq2zaZ-37">
          <mxGeometry relative="1" as="geometry">
            <mxPoint x="23" y="-90" as="offset" />
          </mxGeometry>
        </mxCell>
        <mxCell id="FycG8oyHSj_Sa7Rq2zaZ-39" value="" style="endArrow=classic;html=1;rounded=0;exitX=1;exitY=0.5;exitDx=0;exitDy=0;entryX=-0.022;entryY=0.249;entryDx=0;entryDy=0;entryPerimeter=0;strokeColor=#990099;" edge="1" parent="1" source="FycG8oyHSj_Sa7Rq2zaZ-19" target="FycG8oyHSj_Sa7Rq2zaZ-31">
          <mxGeometry relative="1" as="geometry">
            <mxPoint x="330" y="400" as="sourcePoint" />
            <mxPoint x="430" y="400" as="targetPoint" />
            <Array as="points">
              <mxPoint x="320" y="456" />
              <mxPoint x="320" y="227" />
            </Array>
          </mxGeometry>
        </mxCell>
        <mxCell id="FycG8oyHSj_Sa7Rq2zaZ-40" value="Trigger" style="edgeLabel;resizable=0;html=1;;align=center;verticalAlign=middle;" connectable="0" vertex="1" parent="FycG8oyHSj_Sa7Rq2zaZ-39">
          <mxGeometry relative="1" as="geometry">
            <mxPoint x="120" y="-48" as="offset" />
          </mxGeometry>
        </mxCell>
        <mxCell id="FycG8oyHSj_Sa7Rq2zaZ-41" value="" style="endArrow=classic;html=1;rounded=0;exitX=0.5;exitY=1;exitDx=0;exitDy=0;entryX=1;entryY=0.5;entryDx=0;entryDy=0;strokeColor=#FF0080;" edge="1" parent="1" source="FycG8oyHSj_Sa7Rq2zaZ-32" target="FycG8oyHSj_Sa7Rq2zaZ-5">
          <mxGeometry relative="1" as="geometry">
            <mxPoint x="340" y="580" as="sourcePoint" />
            <mxPoint x="440" y="580" as="targetPoint" />
            <Array as="points">
              <mxPoint x="440" y="785" />
            </Array>
          </mxGeometry>
        </mxCell>
        <mxCell id="FycG8oyHSj_Sa7Rq2zaZ-42" value="No" style="edgeLabel;resizable=0;html=1;;align=center;verticalAlign=middle;" connectable="0" vertex="1" parent="FycG8oyHSj_Sa7Rq2zaZ-41">
          <mxGeometry relative="1" as="geometry" />
        </mxCell>
      </root>
    </mxGraphModel>
  </diagram>
</mxfile>
